<?xml version="1.0" encoding="UTF-8"?>
<svg version="1.1" xmlns="http://www.w3.org/2000/svg" width="240" height="240">
<path d="M0 0 C4.97893375 2.31164781 7.29524243 5.292396 10 10 C10.50336456 13.15783691 10.50336456 13.15783691 10.50793457 16.60351562 C10.51921387 17.91570068 10.53049316 19.22788574 10.54211426 20.57983398 C10.5343381 22.02197488 10.52614549 23.46411358 10.51757812 24.90625 C10.5230019 26.43433295 10.530126 27.96241066 10.53881836 29.49047852 C10.55702444 33.63102079 10.54999557 37.77116355 10.53730202 41.91171265 C10.52716021 46.24909526 10.53657097 50.58644414 10.54284668 54.92382812 C10.55011965 62.20709359 10.54054461 69.4901967 10.52148438 76.7734375 C10.49971624 85.18847922 10.50676787 93.60313326 10.52879 102.01816559 C10.54695401 109.24892744 10.54949744 116.47957273 10.53903532 123.71035004 C10.53280587 128.02644707 10.53194959 132.342362 10.54518127 136.65844727 C10.5567538 140.71664538 10.54868885 144.77434467 10.52560425 148.83248901 C10.52032459 150.31996839 10.52181827 151.80748989 10.53065491 153.29495239 C10.5416215 155.32878092 10.52541659 157.36270141 10.50793457 159.39648438 C10.50642647 160.53355835 10.50491837 161.67063232 10.50336456 162.84216309 C9.70486479 167.8515186 7.11029271 170.94522192 3.5 174.375 C-1.66500009 176.77303575 -6.4002288 176.75381535 -12 176 C-16.97893375 173.68835219 -19.29524243 170.707604 -22 166 C-22.50336456 162.84216309 -22.50336456 162.84216309 -22.50793457 159.39648438 C-22.51921387 158.08429932 -22.53049316 156.77211426 -22.54211426 155.42016602 C-22.5343381 153.97802512 -22.52614549 152.53588642 -22.51757812 151.09375 C-22.5230019 149.56566705 -22.530126 148.03758934 -22.53881836 146.50952148 C-22.55702444 142.36897921 -22.54999557 138.22883645 -22.53730202 134.08828735 C-22.52716021 129.75090474 -22.53657097 125.41355586 -22.54284668 121.07617188 C-22.55011965 113.79290641 -22.54054461 106.5098033 -22.52148438 99.2265625 C-22.49971624 90.81152078 -22.50676787 82.39686674 -22.52879 73.98183441 C-22.54695401 66.75107256 -22.54949744 59.52042727 -22.53903532 52.28964996 C-22.53280587 47.97355293 -22.53194959 43.657638 -22.54518127 39.34155273 C-22.5567538 35.28335462 -22.54868885 31.22565533 -22.52560425 27.16751099 C-22.52032459 25.68003161 -22.52181827 24.19251011 -22.53065491 22.70504761 C-22.5416215 20.67121908 -22.52541659 18.63729859 -22.50793457 16.60351562 C-22.50567242 14.89790466 -22.50567242 14.89790466 -22.50336456 13.15783691 C-21.70486479 8.1484814 -19.11029271 5.05477808 -15.5 1.625 C-10.33499991 -0.77303575 -5.5997712 -0.75381535 0 0 Z " fill="#0097A7" transform="translate(198,32)"/>
<path d="M0 0 C4.96521615 2.30527893 7.43797409 5.20968336 10 10 C10.5763089 13.50250789 10.54688752 16.9566258 10.51757812 20.5 C10.5245874 21.54462402 10.53159668 22.58924805 10.53881836 23.66552734 C10.55639022 27.11062381 10.54477782 30.55489551 10.53125 34 C10.53394513 36.3984391 10.53782772 38.79687714 10.54284668 41.1953125 C10.54874066 46.21885595 10.54018159 51.24211467 10.52148438 56.265625 C10.49869537 62.70189072 10.51181892 69.13748922 10.53577423 75.57373047 C10.55023461 80.52544168 10.545625 85.47699495 10.53526306 90.42871094 C10.53259647 92.80175862 10.53586314 95.17482068 10.54518127 97.54785156 C10.55535031 100.86562028 10.53983934 104.18231145 10.51757812 107.5 C10.52567505 108.47888184 10.53377197 109.45776367 10.54211426 110.46630859 C10.47140556 116.16037885 9.83517225 119.49980593 6 124 C2.18069828 127.62833663 -0.88279006 128.31000458 -6 128.5 C-11.11720994 128.31000458 -14.18069828 127.62833663 -18 124 C-22.57407793 118.63277344 -22.57323692 114.22889928 -22.51757812 107.5 C-22.5245874 106.45537598 -22.53159668 105.41075195 -22.53881836 104.33447266 C-22.55639022 100.88937619 -22.54477782 97.44510449 -22.53125 94 C-22.53394513 91.6015609 -22.53782772 89.20312286 -22.54284668 86.8046875 C-22.54874066 81.78114405 -22.54018159 76.75788533 -22.52148438 71.734375 C-22.49869537 65.29810928 -22.51181892 58.86251078 -22.53577423 52.42626953 C-22.55023461 47.47455832 -22.545625 42.52300505 -22.53526306 37.57128906 C-22.53259647 35.19824138 -22.53586314 32.82517932 -22.54518127 30.45214844 C-22.55535031 27.13437972 -22.53983934 23.81768855 -22.51757812 20.5 C-22.52567505 19.52111816 -22.53377197 18.54223633 -22.54211426 17.53369141 C-22.47140556 11.83962115 -21.83517225 8.50019407 -18 4 C-12.72867143 -1.00776214 -6.89190982 -0.92775709 0 0 Z " fill="#0097A7" transform="translate(150,80)"/>
<path d="M0 0 C4.96521615 2.30527893 7.43797409 5.20968336 10 10 C10.5763089 13.50250789 10.54688752 16.9566258 10.51757812 20.5 C10.5245874 21.54462402 10.53159668 22.58924805 10.53881836 23.66552734 C10.55639022 27.11062381 10.54477782 30.55489551 10.53125 34 C10.53394513 36.3984391 10.53782772 38.79687714 10.54284668 41.1953125 C10.54874066 46.21885595 10.54018159 51.24211467 10.52148438 56.265625 C10.49869537 62.70189072 10.51181892 69.13748922 10.53577423 75.57373047 C10.55023461 80.52544168 10.545625 85.47699495 10.53526306 90.42871094 C10.53259647 92.80175862 10.53586314 95.17482068 10.54518127 97.54785156 C10.55535031 100.86562028 10.53983934 104.18231145 10.51757812 107.5 C10.52567505 108.47888184 10.53377197 109.45776367 10.54211426 110.46630859 C10.47140556 116.16037885 9.83517225 119.49980593 6 124 C2.18069828 127.62833663 -0.88279006 128.31000458 -6 128.5 C-11.11720994 128.31000458 -14.18069828 127.62833663 -18 124 C-22.57407793 118.63277344 -22.57323692 114.22889928 -22.51757812 107.5 C-22.5245874 106.45537598 -22.53159668 105.41075195 -22.53881836 104.33447266 C-22.55639022 100.88937619 -22.54477782 97.44510449 -22.53125 94 C-22.53394513 91.6015609 -22.53782772 89.20312286 -22.54284668 86.8046875 C-22.54874066 81.78114405 -22.54018159 76.75788533 -22.52148438 71.734375 C-22.49869537 65.29810928 -22.51181892 58.86251078 -22.53577423 52.42626953 C-22.55023461 47.47455832 -22.545625 42.52300505 -22.53526306 37.57128906 C-22.53259647 35.19824138 -22.53586314 32.82517932 -22.54518127 30.45214844 C-22.55535031 27.13437972 -22.53983934 23.81768855 -22.51757812 20.5 C-22.52567505 19.52111816 -22.53377197 18.54223633 -22.54211426 17.53369141 C-22.47140556 11.83962115 -21.83517225 8.50019407 -18 4 C-12.72867143 -1.00776214 -6.89190982 -0.92775709 0 0 Z " fill="#0097A7" transform="translate(102,32)"/>
<path d="M0 0 C4.6413483 2.15491171 8.07137126 5.20342786 10 10 C10.59970881 14.49879151 10.56031934 18.96691901 10.53125 23.5 C10.5350769 24.80904297 10.53890381 26.11808594 10.54284668 27.46679688 C10.54872605 30.23066196 10.54023041 32.99400802 10.52148438 35.7578125 C10.49869442 39.28862831 10.51182609 42.81822777 10.53577423 46.34899902 C10.55375956 49.73276177 10.54114232 53.11620276 10.53125 56.5 C10.53934692 57.76263672 10.54744385 59.02527344 10.55578613 60.32617188 C10.43994781 71.18018545 10.43994781 71.18018545 6 76 C2.18069828 79.62833663 -0.88279006 80.31000458 -6 80.5 C-11.11720994 80.31000458 -14.18069828 79.62833663 -18 76 C-23.30101051 70.24545317 -22.57940296 64.00898761 -22.53125 56.5 C-22.5350769 55.19095703 -22.53890381 53.88191406 -22.54284668 52.53320312 C-22.54872605 49.76933804 -22.54023041 47.00599198 -22.52148438 44.2421875 C-22.49869442 40.71137169 -22.51182609 37.18177223 -22.53577423 33.65100098 C-22.55375956 30.26723823 -22.54114232 26.88379724 -22.53125 23.5 C-22.53934692 22.23736328 -22.54744385 20.97472656 -22.55578613 19.67382812 C-22.43994781 8.81981455 -22.43994781 8.81981455 -18 4 C-12.72867143 -1.00776214 -6.89190982 -0.92775709 0 0 Z " fill="#0097A7" transform="translate(54,128)"/>
<path d="M0 0 C4.6413483 2.15491171 8.07137126 5.20342786 10 10 C10.59970881 14.49879151 10.56031934 18.96691901 10.53125 23.5 C10.5350769 24.80904297 10.53890381 26.11808594 10.54284668 27.46679688 C10.54872605 30.23066196 10.54023041 32.99400802 10.52148438 35.7578125 C10.49869442 39.28862831 10.51182609 42.81822777 10.53577423 46.34899902 C10.55375956 49.73276177 10.54114232 53.11620276 10.53125 56.5 C10.53934692 57.76263672 10.54744385 59.02527344 10.55578613 60.32617188 C10.43994781 71.18018545 10.43994781 71.18018545 6 76 C2.18069828 79.62833663 -0.88279006 80.31000458 -6 80.5 C-11.11720994 80.31000458 -14.18069828 79.62833663 -18 76 C-23.30101051 70.24545317 -22.57940296 64.00898761 -22.53125 56.5 C-22.5350769 55.19095703 -22.53890381 53.88191406 -22.54284668 52.53320312 C-22.54872605 49.76933804 -22.54023041 47.00599198 -22.52148438 44.2421875 C-22.49869442 40.71137169 -22.51182609 37.18177223 -22.53577423 33.65100098 C-22.55375956 30.26723823 -22.54114232 26.88379724 -22.53125 23.5 C-22.53934692 22.23736328 -22.54744385 20.97472656 -22.55578613 19.67382812 C-22.43994781 8.81981455 -22.43994781 8.81981455 -18 4 C-12.72867143 -1.00776214 -6.89190982 -0.92775709 0 0 Z " fill="#0097A7" transform="translate(54,32)"/>
<path d="M0 0 C4.8846525 2.26787438 7.73212562 5.1153475 10 10 C10.75381535 15.5997712 10.77303575 20.33499991 8.375 25.5 C3.80134327 30.3143755 0.6912538 32.25156236 -6 32.5 C-12.6912538 32.25156236 -15.80134327 30.3143755 -20.375 25.5 C-22.77303575 20.33499991 -22.75381535 15.5997712 -22 10 C-17.52212837 0.3553534 -9.85292056 -1.32635469 0 0 Z " fill="#0097A7" transform="translate(102,176)"/>
<path d="M0 0 C4.8846525 2.26787438 7.73212562 5.1153475 10 10 C10.75381535 15.5997712 10.77303575 20.33499991 8.375 25.5 C3.80134327 30.3143755 0.6912538 32.25156236 -6 32.5 C-12.6912538 32.25156236 -15.80134327 30.3143755 -20.375 25.5 C-22.77303575 20.33499991 -22.75381535 15.5997712 -22 10 C-17.52212837 0.3553534 -9.85292056 -1.32635469 0 0 Z " fill="#0097A7" transform="translate(150,32)"/>
</svg>
